# xmcd
# 
# Track frame offsets:
#     150
#     21910
#     33695
#     47590
#     61105
#     69995
#     81535
#     96680
#     108137
#     118462
#     130962
#     141320
#     152947
#     167357
#     180305
#     195382
#     212907
#     227525
# 
# Disc length: 3198
# 
# Revision: 1
# Processed by: cddbd v1.5.2PL0 Copyright (c) Steve Scherf et al.
# Submitted via: BonkEnc v1.0
# 
DISCID=000c7c12
DTITLE=Divers - Toutes les danses CD 2
DYEAR=0
DGENRE=Danses de salon
TTITLE0=Valse de l'empereur - Valse
TTITLE1=Frou Frou - Valse Musette
TTITLE2=J'attendrai - Slow
TTITLE3=Strangers in the night - Slow
TTITLE4=Good golly miss Molly - Rock
TTITLE5=Be bop a lula - Rock
TTITLE6=Charleston - Charleston
TTITLE7=Black bottom - Charleston
TTITLE8=Java des as - Java
TTITLE9=La migliavacca - Java, Mazurka
TTITLE10=Mon amant de Saint-Jean - Valse Musette
TTITLE11=Reine de musette - Valse Musette
TTITLE12=Perles de cristal - Polka
TTITLE13=Esmeralda - Mambo, Boléro
TTITLE14=Mambo n°7 - Mambo 
TTITLE15=Nuages - Slow
TTITLE16=Si tu vois ma mère - Slow
TTITLE17=What did I say - Rock
EXTD=
EXTT0=
EXTT1=
EXTT2=
EXTT3=
EXTT4=
EXTT5=
EXTT6=
EXTT7=
EXTT8=
EXTT9=
EXTT10=
EXTT11=
EXTT12=
EXTT13=
EXTT14=
EXTT15=
EXTT16=
EXTT17=
PLAYORDER=
